<svg xmlns="http://www.w3.org/2000/svg" viewBox="0 0 512 512">
  <rect width="512" height="512" rx="90" fill="#1B2A41"/>
  <!-- Palm trunk -->
  <rect x="248" y="270" width="16" height="120" rx="6" fill="#C9A35E"/>
  <!-- Palm fronds -->
  <ellipse cx="256" cy="240" rx="12" ry="52" fill="#C9A35E" transform="rotate(-45 256 240)"/>
  <ellipse cx="256" cy="240" rx="12" ry="52" fill="#C9A35E" transform="rotate(45 256 240)"/>
  <ellipse cx="256" cy="225" rx="10" ry="56" fill="#C9A35E" transform="rotate(-75 256 225)"/>
  <ellipse cx="256" cy="225" rx="10" ry="56" fill="#C9A35E" transform="rotate(75 256 225)"/>
  <ellipse cx="256" cy="220" rx="10" ry="58" fill="#C9A35E"/>
  <!-- Sword blade -->
  <rect x="72" y="332" width="368" height="16" rx="8" fill="#C9A35E"/>
  <!-- Tip right -->
  <polygon points="440,332 440,348 465,340" fill="#C9A35E"/>
  <!-- Tip left -->
  <polygon points="72,332 72,348 47,340" fill="#C9A35E"/>
  <!-- Handle -->
  <rect x="228" y="314" width="56" height="52" rx="6" fill="#C9A35E"/>
  <rect x="244" y="300" width="24" height="80" rx="5" fill="#1B2A41"/>
  <rect x="251" y="296" width="10" height="88" rx="4" fill="#C9A35E"/>
</svg>
